<svg width="96" height="97" viewBox="0 0 96 97" fill="none" xmlns="http://www.w3.org/2000/svg">
<path d="M86 64.6667L80 52.5417V60.625V72.75H72V59.8167L60 58.6042L44 62.6458V72.75H36V62.6458L26.46 57.8282L18 64.6667L8 58.6042V40.4167C8 35.9506 11.58 32.3333 16 32.3333H24L35.404 25.7333C35.76 25.4787 36.144 25.2685 36.544 25.0745L36.644 25.0179H36.652C37.672 24.537 38.8 24.25 40 24.25C40.732 24.25 41.424 24.3793 42.096 24.5653L42.124 24.5612L70 32.3333C70 32.3333 86 37.0702 86 44.4583C86 51.8465 86 64.6667 86 64.6667Z" fill="#6D4C41"/>
<path opacity="0.4" d="M24 44.4583V38.3958C28.26 38.3958 30 36.6377 30 32.3333H36C36 40.0408 31.628 44.4583 24 44.4583Z" fill="white"/>
<path opacity="0.3" d="M42.124 24.5653L42.096 24.5693C41.424 24.3793 40.732 24.25 40 24.25C38.8 24.25 37.672 24.537 36.648 25.0139H36.64L36.544 25.0745C36.148 25.2685 35.764 25.4787 35.404 25.7333L24 32.3333H16C11.58 32.3333 8 35.9506 8 40.4167H10.46C19.296 40.4167 26.46 47.6553 26.46 56.5833C26.46 57.0481 26.364 57.4806 26.324 57.9373L26.46 57.8282L36 62.6458L44 66.6875V62.6458V56.5833C44 43.1892 54.744 32.3333 68 32.3333C68.808 32.3333 69.604 32.3778 70.388 32.4546C70.16 32.3818 70 32.3333 70 32.3333L42.124 24.5653ZM24 44.4583V38.3958C28.26 38.3958 30 36.6377 30 32.3333H36C36 40.0408 31.628 44.4583 24 44.4583ZM86 44.4583C86 51.8546 86 64.6667 86 64.6667L80 52.5417V36.7792C83.24 38.7596 86 41.3462 86 44.4583Z" fill="black"/>
</svg>
