<svg width="98" height="97" viewBox="0 0 98 97" fill="none" xmlns="http://www.w3.org/2000/svg">
<path d="M89.8333 42.4375C89.8333 48.0069 85.2559 52.5417 79.625 52.5417C75.5416 52.5417 72.9405 50.8603 70.6457 49.3811C70.4007 49.2235 70.1516 49.0699 69.9066 48.9163L77.4975 58.9962L77.5833 59.0528V59.1053L77.5996 59.1255L77.5833 59.1417V68.7083H71.4583V62.1972L64.0348 57.0077L61.25 61.3687V68.7083H55.125V56.5833H40.8333V68.7083H34.7083V56.5833H31.1068L23.324 68.7083H16.0638L25.1043 54.6272L16.4558 40.4167H10.5921L8.16663 34.3542L14.5856 29.5931L14.5979 29.6133C15.6432 28.7969 16.9417 28.2917 18.375 28.2917V24.25H24.5V28.2917L46.9583 38.3958L64.5697 40.4167L64.5779 40.453C69.0165 41.1118 71.7809 42.874 73.9981 44.3007C76.0275 45.6102 77.3669 46.4792 79.629 46.4792C81.883 46.4792 83.7124 44.6645 83.7124 42.4375C83.7124 40.2105 81.883 38.3958 79.629 38.3958H77.5833V32.3333H79.625C85.2559 32.3333 89.8333 36.8681 89.8333 42.4375Z" fill="#424242"/>
<path opacity="0.3" d="M31.1068 56.5833L23.324 68.7083H16.0638L25.1043 54.6272L26.2967 56.5833H27.2277H31.1068ZM63.4264 56.5833H55.125V68.7083H61.25V61.3687L64.0348 57.0077L63.4264 56.5833Z" fill="black"/>
</svg>
